<svg xmlns="http://www.w3.org/2000/svg" xmlns:xlink="http://www.w3.org/1999/xlink" version="1.1" x="0px" y="0px" viewBox="0 0 100 100" enable-background="new 0 0 100 100" xml:space="preserve"><path fill="#000000" d="M58.478,82.213l16.239-9.373c0.011-0.006,0.012-0.02,0.021-0.027c0.026-0.021,0.04-0.044,0.056-0.073  c0.017-0.028,0.031-0.052,0.036-0.085c0.001-0.012,0.013-0.019,0.013-0.031V53.881V35.156V16.413c0-0.012-0.012-0.02-0.013-0.032  c-0.003-0.022-0.008-0.039-0.017-0.059c-0.004-0.011,0.002-0.023-0.004-0.034s-0.02-0.011-0.027-0.021  c-0.014-0.018-0.026-0.031-0.044-0.044c-0.01-0.007-0.01-0.021-0.021-0.026L58.478,6.825c-0.011-0.006-0.023,0-0.035-0.005  c-0.03-0.013-0.058-0.012-0.09-0.012c-0.033,0-0.061,0-0.091,0.013c-0.012,0.004-0.023-0.002-0.034,0.004l-16.226,9.371  c-0.011,0.006-0.011,0.02-0.021,0.026c-0.018,0.014-0.03,0.026-0.044,0.044c-0.008,0.01-0.021,0.01-0.027,0.021s0,0.023-0.004,0.034  c-0.009,0.021-0.014,0.037-0.017,0.059c-0.001,0.012-0.013,0.02-0.013,0.032v18.744v18.58l-16.096,9.305  c-0.011,0.006-0.012,0.02-0.021,0.027c-0.018,0.014-0.029,0.025-0.043,0.044c-0.008,0.009-0.021,0.01-0.027,0.021  s0,0.022-0.004,0.034c-0.009,0.021-0.014,0.037-0.017,0.06c-0.002,0.012-0.013,0.02-0.013,0.031v18.738  c0,0.013,0.012,0.02,0.013,0.031c0.005,0.033,0.02,0.057,0.036,0.085c0.016,0.029,0.029,0.053,0.056,0.073  c0.009,0.008,0.01,0.021,0.021,0.027l16.221,9.365c0,0,0.001,0,0.002,0c0.037,0.021,0.08,0.033,0.123,0.033s0.086-0.012,0.123-0.033  c0.001,0,0.002,0,0.002,0L58.478,82.213z M26.906,64.124l14.971,8.644v17.295l-14.971-8.644V64.124z M43.127,17.278l14.976,8.645  v18.165l-14.976-8.643v-0.289V17.278z M73.592,35.444l-14.989,8.645V25.924l14.989-8.646v17.878V35.444z M73.592,54.169  l-14.989,8.655V44.666l14.989-8.644v17.859V54.169z M58.603,63.402l14.989-8.655v17.299l-14.989,8.651V63.402z M43.127,36.022  l14.976,8.644v18.158L43.09,54.148c0.023-0.086,0.037-0.176,0.037-0.268V36.022z M42.377,72.768l15.726-9.076v17.294l-0.25,0.145  l-15.476,8.933V72.768z"></path></svg>